<?xml version="1.0" standalone="no"?>
<!DOCTYPE svg PUBLIC "-//W3C//DTD SVG 20010904//EN"
 "http://www.w3.org/TR/2001/REC-SVG-20010904/DTD/svg10.dtd">
<svg version="1.0" xmlns="http://www.w3.org/2000/svg"
 width="997.000000pt" height="997.000000pt" viewBox="0 0 997.000000 997.000000"
 preserveAspectRatio="xMidYMid meet">
<metadata>
Created by potrace 1.14, written by Peter Selinger 2001-2017
</metadata>
<g transform="translate(0.000000,997.000000) scale(0.100000,-0.100000)"
fill="#000000" stroke="none">
<path d="M4635 7089 c-1096 -24 -2189 -227 -3017 -560 -1158 -466 -1710 -1132
-1516 -1829 90 -327 392 -672 816 -937 821 -511 2117 -843 3527 -903 1319 -56
2557 93 3568 430 920 307 1542 734 1783 1225 273 556 41 1133 -641 1597 -871
593 -2363 961 -3980 980 -132 2 -375 0 -540 -3z m-86 -259 c168 -28 278 -144
303 -322 6 -43 8 -261 5 -542 -4 -510 -3 -500 -62 -616 -34 -68 -126 -160
-191 -193 -114 -58 -113 -58 -700 -55 l-539 3 -55 26 c-66 31 -131 94 -161
155 -11 25 -26 82 -31 127 -13 100 -38 141 -99 157 -34 9 -46 8 -76 -7 -20
-10 -46 -31 -57 -46 -21 -28 -21 -39 -21 -540 0 -471 1 -515 18 -544 42 -78
161 -84 210 -10 8 13 20 62 26 110 11 94 25 130 78 195 46 57 121 98 203 112
46 8 226 10 566 8 486 -4 501 -5 558 -26 154 -57 251 -155 309 -310 20 -54 21
-79 25 -532 2 -285 0 -504 -6 -548 -19 -135 -88 -234 -201 -290 -55 -26 -60
-27 -226 -26 -443 3 -1206 103 -1750 230 -377 88 -533 144 -669 236 -222 151
-377 370 -442 626 -67 263 -73 1221 -9 1494 82 353 321 633 656 767 158 63
703 188 1069 246 324 51 728 94 1060 114 74 4 137 9 140 9 3 1 34 -3 69 -8z
m1116 -5 c413 -22 953 -90 1380 -176 237 -48 595 -138 691 -174 326 -123 576
-405 664 -751 70 -274 67 -1250 -5 -1524 -82 -309 -295 -563 -589 -701 -354
-165 -1612 -378 -2271 -383 -167 -1 -171 -1 -227 27 -73 36 -150 119 -177 193
-21 55 -21 56 -19 1647 l3 1592 26 56 c64 135 207 215 364 203 28 -2 100 -6
160 -9z m-4750 -1639 c89 -41 135 -114 135 -214 0 -235 -301 -326 -432 -131
-33 50 -42 93 -35 164 9 84 55 147 137 184 61 28 132 27 195 -3z"/>
<path d="M6912 5559 c-66 -33 -74 -63 -67 -232 4 -78 8 -310 9 -514 l1 -373
31 -31 c43 -43 109 -51 153 -19 62 43 62 42 62 468 0 435 -7 615 -27 653 -29
57 -100 78 -162 48z"/>
</g>
</svg>
